<svg width="32" height="24" viewBox="0 0 32 24" fill="none" xmlns="http://www.w3.org/2000/svg"><path fill-rule="evenodd" clip-rule="evenodd" d="M6.35266 2.99897L9.48989 0.863281C9.49134 0.887661 9.49293 0.908092 9.49434 0.926132C9.49656 0.954645 9.49832 0.977185 9.49832 0.999902L9.49827 1.68019C9.49814 2.81399 9.498 3.9478 9.50113 5.08161C9.50113 5.1741 9.46648 5.22058 9.39437 5.26706C8.76737 5.66893 8.14174 6.0732 7.51602 6.47753L7.19362 6.68584C7.18735 6.68988 7.18027 6.69345 7.1732 6.697C7.1581 6.70461 7.14305 6.71219 7.13603 6.72434C7.11168 6.76753 7.08593 6.81495 7.08171 6.86237C7.08031 6.87598 7.15008 6.91072 7.18754 6.91119C7.70047 6.91324 8.21316 6.9133 8.72596 6.91337C8.91814 6.91339 9.11035 6.91341 9.30259 6.91354C9.3228 6.91354 9.34097 6.91338 9.3573 6.91323C9.43321 6.91256 9.46946 6.91223 9.48633 6.93016C9.50175 6.94654 9.50097 6.97817 9.49948 7.03872C9.49895 7.06049 9.49832 7.086 9.49832 7.11589C9.49902 8.00429 9.49893 8.89295 9.49884 9.78148L9.49879 10.8215C9.48161 10.8227 9.46535 10.8241 9.44969 10.8255C9.41627 10.8283 9.38565 10.8309 9.35504 10.8309H9.35331C6.28455 10.8309 3.21579 10.8309 0.14656 10.8342C0.0234122 10.8342 0 10.7962 0 10.6816C0.00294319 9.44366 0.00270663 8.20569 0.00247007 6.96772L0.002341 5.95485C0.00234097 5.25907 0.0777281 4.57456 0.308572 3.914C0.508512 3.3431 0.816148 2.84263 1.28158 2.45014C1.77464 2.03371 2.35714 1.82948 2.9888 1.76C3.6139 1.69098 4.23339 1.72479 4.83836 1.91258C5.41711 2.09192 5.89893 2.41164 6.26135 2.90413C6.27774 2.9262 6.2946 2.9478 6.31239 2.96799C6.31713 2.97333 6.32319 2.97774 6.33269 2.98466C6.3382 2.98868 6.34488 2.99353 6.35313 2.99991L6.35266 2.99897ZM3.66775 6.91307C3.72862 6.91307 3.78949 6.91297 3.85036 6.91286C3.97202 6.91265 4.09394 6.91245 4.21559 6.91307C4.27366 6.91307 4.31205 6.90227 4.31065 6.82997C4.30916 6.74746 4.30977 6.66477 4.31039 6.58207C4.31151 6.43044 4.31263 6.27877 4.30082 6.12809C4.27319 5.7802 4.02783 5.57081 3.67384 5.56846C3.32593 5.56659 3.08245 5.76847 3.05014 6.11495C3.0354 6.2731 3.03599 6.43251 3.03658 6.59206C3.03688 6.67074 3.03717 6.74948 3.03562 6.82809C3.03422 6.89711 3.07121 6.91354 3.13068 6.91307C3.25848 6.91206 3.38629 6.91226 3.51392 6.91245L3.66681 6.9126L3.66775 6.91307Z" fill="#3B9DFF"/><path d="M7.0255 19.3778C7.80108 19.3781 8.57653 19.3785 9.35223 19.3748C9.46976 19.3744 9.50253 19.4039 9.50206 19.5241C9.49738 20.6814 9.49785 21.8387 9.5016 22.996C9.5016 23.1011 9.47678 23.1368 9.36627 23.1368C6.28898 23.134 3.21168 23.134 0.134854 23.1368C0.0360548 23.1368 0 23.1143 0 23.0072C0.00374591 21.9828 0.00327761 20.9584 0.000468109 19.934C0.000468109 19.8518 0.0304357 19.8082 0.0969262 19.7668C1.27128 19.0363 2.4447 18.3039 3.61765 17.5715C3.64823 17.5523 3.6781 17.5324 3.71451 17.5081L3.76093 17.4772C3.74637 17.4667 3.73297 17.4568 3.72029 17.4475C3.69262 17.4271 3.66828 17.4092 3.64293 17.3931L3.33511 17.2008C2.2582 16.5277 1.18115 15.8546 0.102545 15.1847C0.0252848 15.1368 -3.45652e-07 15.0856 0.000467878 14.9973C0.0032773 13.9847 0.0037455 12.972 0.000467763 11.9593C0.000467744 11.8508 0.0229434 11.8124 0.140004 11.8124C3.21309 11.8156 6.28664 11.8156 9.35972 11.8124C9.47397 11.8124 9.50113 11.8471 9.50113 11.9574C9.49738 13.1147 9.49738 14.272 9.50113 15.4293C9.50113 15.5419 9.47116 15.5734 9.35831 15.5729C8.59565 15.5697 7.83327 15.57 7.07074 15.5704L7.06256 15.5704C6.83062 15.5705 6.59868 15.5706 6.36671 15.5706H6.22951L6.21687 15.5969C6.22728 15.6048 6.23758 15.613 6.24791 15.6211C6.26822 15.6373 6.28863 15.6534 6.31005 15.6678L6.45967 15.7676C6.79884 15.994 7.13792 16.2203 7.47878 16.4438C7.54902 16.4898 7.57665 16.5401 7.57618 16.6246C7.5729 17.1912 7.57243 17.7584 7.57618 18.3255C7.57665 18.411 7.54668 18.4598 7.47691 18.5053C7.19272 18.6913 6.91029 18.8795 6.62778 19.0678C6.52441 19.1367 6.42102 19.2056 6.31754 19.2744C6.29465 19.2897 6.2724 19.3056 6.25007 19.3216L6.21827 19.3443C6.22108 19.3556 6.22389 19.3664 6.22717 19.3776L7.0255 19.3778Z" fill="#3B9DFF"/><path fill-rule="evenodd" clip-rule="evenodd" d="M21.2022 17.9531V23.1364H12.1282V0.886548C12.1859 0.883925 12.241 0.880715 12.2943 0.877608C12.3999 0.871453 12.4986 0.8657 12.5973 0.8657C13.756 0.8657 14.915 0.86541 16.074 0.865121C18.3925 0.864542 20.7113 0.863963 23.029 0.8657C24.6968 0.8657 26.3126 1.13933 27.8058 1.91591C30.1929 3.15636 31.4854 5.1786 31.8815 7.80021C32.1473 9.56967 31.9753 11.2922 31.2691 12.9522C30.3935 15.0136 28.8273 16.3322 26.7816 17.1322C25.3275 17.7003 23.8056 17.8958 22.2603 17.9505C22.0419 17.9573 21.8246 17.9552 21.5909 17.9529C21.4676 17.9517 21.3398 17.9505 21.2048 17.9505L21.2022 17.9531ZM21.4728 11.4052C21.3462 11.4026 21.2154 11.3999 21.0782 11.3999V7.94997C21.2236 7.94997 21.3674 7.94552 21.5098 7.94111C21.8297 7.93121 22.1424 7.92153 22.449 7.963C22.9441 8.03075 23.8104 8.54251 23.8104 9.69967C23.8104 10.8568 22.7591 11.3451 22.2301 11.3947C21.9848 11.4158 21.7383 11.4107 21.4728 11.4052Z" fill="#3B9DFF"/></svg>
