<svg xmlns:xlink="http://www.w3.org/1999/xlink" xmlns="http://www.w3.org/2000/svg" xmlns:v="https://vecta.io/nano" viewBox="0 0 56 36" fill="none" width="56"  height="36" ><g clip-path="url(#A)" fill="#fff"><path d="M4.445 14.03h.095l2.135-.002c.084 0 .107.021.107.107v2.478c0 .075-.018.101-.097.101-2.196-.002-4.392-.002-6.588 0-.071 0-.096-.016-.096-.092v-2.193c0-.059.021-.09.069-.119l2.512-1.567.102-.067-.084-.06L.073 11.04C.018 11.003 0 10.967 0 10.904V8.736c0-.077.016-.105.1-.105h6.579c.082 0 .101.025.101.104v2.478c0 .08-.021.103-.102.103l-2.135-.002h-.098l-.009.019.066.051.834.554c.05.033.07.069.07.129v1.214c0 .061-.021.096-.071.128l-.827.549-.071.05.006.024h.001zm.088-11.688L6.772.818l.006.097.002 2.913c0 .066-.025.099-.076.132l-1.57 1.013c-.014.009-.034.015-.041.027a.26.26 0 0 0-.039.099c-.001.01.049.035.076.035l1.509.002c.165 0 .14-.015.14.144v2.536.108l-.103.007-6.571.002C.017 7.933 0 7.906 0 7.824l.002-3.373c0-.497.054-.985.219-1.456A2.34 2.34 0 0 1 .915 1.95c.352-.297.768-.443 1.218-.493s.888-.025 1.32.109a1.93 1.93 0 0 1 1.015.708l.036.046c.005.006.013.01.029.023h0zM2.617 5.135h.391c.041 0 .069-.008.068-.059l-.007-.501c-.02-.248-.195-.398-.447-.399s-.422.143-.445.39c-.016.169-.007.339-.01.509-.001.049.025.061.068.061h.383.001zM55.665 16.74c-1.069 0-2.113.007-3.156-.009-.117 0-.251-.11-.344-.203l-4.718-4.742c-.087-.089-.13-.223-.195-.337l-.134.104v5.163h-6.397V.836l.303-.015 2.284.009c.175.006.381.086.513.199l5.217 4.543c.054.048.117.086.238.173V.838h6.386V16.74h.004zm-14.942 2.606h.337 7.474c1.242 0 2.449.19 3.578.74 2.133 1.041 3.26 3.256 2.903 5.693-.219 1.491-.848 2.78-1.947 3.82-.18.171-.115.29-.037.452l2.386 4.897c.047.095.084.193.138.322h-.42c-2.035 0-4.069-.006-6.103.007-.272 0-.368-.085-.439-.338l-1.08-3.77h-.441v4.076h-6.349V19.346h.002zm6.355 7.347l.822-.004c.378-.035 1.128-.384 1.128-1.21s-.618-1.191-.972-1.239c-.316-.043-.642-.009-.978-.009v2.462zM30.918.413l-.027.447-.539 8.815c-.016.265-.018.541.025.803.089.521.467.816 1.019.845.56.027.945-.224 1.092-.742.066-.233.097-.483.112-.727l.549-8.882.026-.422 6.654.41-.027.439-.538 8.949c-.134 3.236-2.178 5.61-5.09 6.478-2.577.769-5.085.5-7.42-.854-1.949-1.128-2.918-2.903-3.1-5.122a8.49 8.49 0 0 1-.005-1.139l.574-9.386.02-.325 6.673.411h.002zm-5.803 35.585l-.95-16.589 13.694-.784.287 5.005-7.014.402.035 1.049 6.896-.395.25 4.361-6.865.393.064 1.117 7.199-.412.29 5.06L25.115 36v-.002zM22.841 19.36v5.512h-3.84V35.25h-6.49V24.906H8.653V19.36h14.188z"/><path fill-rule="evenodd" d="M15.131 16.712v-3.699l.002-.002.275.002.478-.002c1.103-.039 2.189-.178 3.227-.584 1.46-.571 2.578-1.512 3.202-2.983.504-1.185.627-2.414.437-3.677-.283-1.871-1.205-3.314-2.909-4.199-1.066-.554-2.219-.749-3.409-.749h-4.963H8.99l-.216.008-.119.006v15.878h6.475zm.193-8.372l.54-.008c.377-.035 1.128-.384 1.128-1.21s-.618-1.191-.972-1.239a4.07 4.07 0 0 0-.67-.016l-.308.006v2.462l.282.004z"/></g><defs><clipPath id="A"><path fill="#fff" d="M0 0h55.665v36H0z"/></clipPath></defs></svg>