<svg xmlns="http://www.w3.org/2000/svg" xmlns:xlink="http://www.w3.org/1999/xlink" width="24"  height="24" ><symbol xmlns="http://www.w3.org/2000/svg" id="home" viewBox="0 0 24 24"><path d="M13 19h6V9.978l-7-5.444-7 5.444V19h6v-6h2v6Zm8 1a1 1 0 0 1-1 1H4a1 1 0 0 1-1-1V9.49a1 1 0 0 1 .386-.79l8-6.222a1 1 0 0 1 1.228 0l8 6.222a1 1 0 0 1 .386.79V20Z"/></symbol><symbol xmlns="http://www.w3.org/2000/svg" id="help-centre" viewBox="0 0 24 24"><path d="M12 22C6.477 22 2 17.523 2 12S6.477 2 12 2s10 4.477 10 10-4.477 10-10 10Zm0-2a8 8 0 1 0 0-16 8 8 0 0 0 0 16Zm-1-5h2v2h-2v-2Zm2-1.645V14h-2v-1.5a1 1 0 0 1 1-1 1.5 1.5 0 1 0-1.471-1.794l-1.962-.393A3.501 3.501 0 1 1 13 13.355Z"/></symbol><symbol xmlns="http://www.w3.org/2000/svg" id="vip" viewBox="0 0 24 24"><g clip-path="url(#clip0_527_64357)"><path fill-rule="evenodd" clip-rule="evenodd" d="M19.215 3H4.785a1.012 1.012 0 0 0-.818.417L.097 8.74a.506.506 0 0 0 .037.64l3.702 4.012 7.82 8.474a.506.506 0 0 0 .715-.029L23.866 9.381a.506.506 0 0 0 .037-.641l-3.87-5.323A1.012 1.012 0 0 0 19.214 3ZM3.139 8l2.163-2.975h13.396L20.861 8H3.139Zm.321 2L12 19.253 20.54 10H3.46Z"/></g><defs><clipPath/></defs></symbol><symbol xmlns="http://www.w3.org/2000/svg" id="shop" viewBox="0 0 24 24"><path d="M12 2a6 6 0 0 1 6 6v1h4v2h-1.167l-.757 9.083a1 1 0 0 1-.996.917H4.92a1 1 0 0 1-.996-.917L3.166 11H2V9h4V8a6 6 0 0 1 6-6Zm6.826 9H5.173l.667 8h12.319l.667-8ZM13 13v4h-2v-4h2Zm-4 0v4H7v-4h2Zm8 0v4h-2v-4h2Zm-5-9a4 4 0 0 0-3.995 3.8L8 8v1h8V8a4 4 0 0 0-3.8-3.995L12 4Z"/></symbol><symbol xmlns="http://www.w3.org/2000/svg" id="cashcrab" viewBox="0 0 24 24"><path fill-rule="evenodd" clip-rule="evenodd" d="M7.61 4.442c2.938-1.61 6.39-2.145 9.074-1.875 3.732.375 5.325 2.524 5.764 4.115a1.375 1.375 0 0 1-.418 1.412c-.359.314-.85.424-1.312.308l-.393-.099c-.267.793-.695 1.39-1.288 1.754-.601.368-1.24.414-1.773.331-.3.739-.777 1.293-1.44 1.539-.622.23-1.23.125-1.702-.097-.907.793-1.189 1.655-1.194 2.17v.021l.049-.047.104-.102.002-.001c.085-.08.444-.413.994-.324.131.022.243.064.333.108.77-.957 1.541-1.507 2.418-1.416.291.03.532.131.705.224.131-.126.281-.286.438-.464a2.007 2.007 0 0 1 1.665-.686c.664.06 1.312.505 1.486 1.32.461 2.154-.929 4.104-2.527 5.477-1.653 1.42-3.851 2.524-5.765 3.005-1.973.495-4.962.654-7.393-.394-1.24-.535-2.366-1.398-3.097-2.716-.73-1.316-1.01-2.985-.738-5.03.55-4.148 3.043-6.907 6.009-8.533Zm.958 1.764c-2.531 1.387-4.536 3.65-4.985 7.035-.229 1.722.03 2.932.503 3.786.473.852 1.216 1.45 2.139 1.847 1.893.817 4.402.724 6.12.292 1.619-.407 3.538-1.368 4.95-2.582 1.204-1.035 1.84-2.066 1.909-2.963-.151.16-.31.318-.464.454a3.04 3.04 0 0 1-.422.317 1.434 1.434 0 0 1-.734.223c-.29 0-.516-.101-.638-.165-.1-.051-.202-.119-.253-.152l-.02-.013-.038-.024c-.112.063-.4.274-.895.95a1.518 1.518 0 0 1-1.75.53 3.338 3.338 0 0 1-.456.275 1.792 1.792 0 0 1-1.05.192 1.623 1.623 0 0 1-.95-.486c-.458-.472-.61-1.143-.604-1.743.012-1.25.693-2.768 2.215-3.939.641-.494 1.382-.288 1.773-.056.136.08.206.06.213.058.006-.002.042-.015.1-.085.061-.074.15-.215.233-.466.3-.904 1.26-1.282 2.024-1.104.228.053.393.025.51-.046.11-.067.347-.278.51-.95.158-.651.752-1.194 1.479-1.196-.56-.708-1.607-1.439-3.502-1.63-2.314-.232-5.358.238-7.917 1.64Z"/></symbol><symbol xmlns="http://www.w3.org/2000/svg" id="tournament" viewBox="0 0 24 24"><path d="M13.004 16.942v2.062h5v2h-12v-2h5v-2.062a8.001 8.001 0 0 1-7-7.938v-6h16v6a8.001 8.001 0 0 1-7 7.938Zm-7-11.938v4a6 6 0 1 0 12 0v-4h-12Zm-5 0h2v4h-2v-4Zm20 0h2v4h-2v-4Z"/></symbol><symbol xmlns="http://www.w3.org/2000/svg" id="challenge" viewBox="0 0 24 24"><path d="M17.857 9.318V1.786A.785.785 0 0 0 17.071 1h-5.5a.786.786 0 0 0-.51 1.382l5.225 4.48v2.456l-5.072 7.071-3.373-3.373a.786.786 0 0 0-1.11 0c-1.233 1.905-5.079 8.018-5.658 8.939a.478.478 0 0 0-.073.26.786.786 0 0 0 .786.785h20.428a.786.786 0 0 0 .786-.786V21a1 1 0 0 0-.087-.41L17.857 9.318Z"/></symbol><symbol xmlns="http://www.w3.org/2000/svg" id="sports-live-sports" viewBox="0 0 24 24"><path d="M13 6V4H5V2h10v4h1a1 1 0 0 1 1 1v2.2l5.213-3.65a.5.5 0 0 1 .787.41v12.08a.5.5 0 0 1-.787.41L17 14.8V19a1 1 0 0 1-1 1H2a1 1 0 0 1-1-1V7a1 1 0 0 1 1-1h11Zm2 2H3v10h12V8Zm2 4.359 4 2.8V8.84l-4 2.8v.718ZM5 10h2v2H5v-2Z"/></symbol><symbol xmlns="http://www.w3.org/2000/svg" id="sports-sportsbook" viewBox="0 0 24 24"><path fill-rule="evenodd" clip-rule="evenodd" d="M12 23c6.075 0 11-4.925 11-11S18.075 1 12 1 1 5.925 1 12s4.925 11 11 11Zm6.519-4.795A8.97 8.97 0 0 0 21 12c0-.543-.048-1.075-.14-1.59l-2.972.765-.792 2.48-.777 2.35 2.2 2.2Zm-3.69-.861-2.83.014-2.829-.014-2.152 2.152A8.958 8.958 0 0 0 12 21a8.958 8.958 0 0 0 4.982-1.503l-2.153-2.153Zm-7.15-1.338-2.198 2.199A8.97 8.97 0 0 1 3 12c0-.545.048-1.078.141-1.596l2.96.74.801 2.511.777 2.351Zm-.97-6.772 2.14-1.57L11 6.117V3.055a9.008 9.008 0 0 0-7.288 5.43l2.998.75ZM13 6.12l2.15 1.545 2.168 1.592 2.972-.765A9.008 9.008 0 0 0 13 3.055v3.064Zm-2.975 3.163 1.974-1.42 1.975 1.42 1.96 1.439-.74 2.316-.763 2.309-2.432.012-2.431-.012-.764-2.309-.74-2.316 1.96-1.44Z"/></symbol><symbol xmlns="http://www.w3.org/2000/svg" id="jackpots" viewBox="0 0 24 24"><path fill-rule="evenodd" clip-rule="evenodd" d="M18.781 18.779a3.98 3.98 0 0 0 3.06-6.781 3.98 3.98 0 0 0-3.058-6.781 3.98 3.98 0 0 0-6.781-3.06 3.98 3.98 0 0 0-6.781 3.06 3.98 3.98 0 0 0-3.06 6.781 3.98 3.98 0 0 0 3.058 6.781A3.98 3.98 0 0 0 12 21.84a3.98 3.98 0 0 0 6.781-3.06ZM7.793 6.375a1.98 1.98 0 1 1 2.8-2.8l1.41 1.41 1.408-1.41a1.98 1.98 0 1 1 2.798 2.8L12 10.583 7.793 6.375ZM13.415 12l4.21-4.21a1.98 1.98 0 0 1 2.797 2.8l-1.41 1.409 1.41 1.41a1.98 1.98 0 0 1-2.8 2.799L13.415 12Zm2.794 5.622L12 13.413l-4.208 4.208a1.98 1.98 0 1 0 2.797 2.799L12 19.01l1.41 1.41a1.98 1.98 0 1 0 2.799-2.8Zm-5.622-5.624L6.379 7.789a1.98 1.98 0 1 0-2.8 2.8l1.41 1.41-1.41 1.409a1.98 1.98 0 0 0 2.798 2.799l4.21-4.21Z"/></symbol><symbol xmlns="http://www.w3.org/2000/svg" id="live-casino" viewBox="0 0 28 28"><path d="M10.06 13.998a1.975 1.975 0 0 1 0-2.722 1.81 1.81 0 0 1 2.625 0l1.313 1.361 1.311-1.36a1.81 1.81 0 0 1 2.626 0c.725.752.725 1.97 0 2.723l-3.938 4.083-2.626-2.722.002-.002-1.313-1.361Z"/><path fill-rule="evenodd" clip-rule="evenodd" d="M4.667 2.917c0-.967.783-1.75 1.75-1.75h15.167c.966 0 1.75.783 1.75 1.75v22.166a1.75 1.75 0 0 1-1.75 1.75H6.417a1.75 1.75 0 0 1-1.75-1.75V2.917ZM7 24.5v-21h14v21H7Z"/></symbol><symbol xmlns="http://www.w3.org/2000/svg" id="games" viewBox="0 0 28 28"><path fill-rule="evenodd" clip-rule="evenodd" d="M3.5 7.312V4.667a2.333 2.333 0 0 1 2.333-2.334h12.833A2.333 2.333 0 0 1 21 4.667v2.645a2.332 2.332 0 0 1 1.166 2.021v.584H24.5a2.333 2.333 0 0 1 2.333 2.333v3.229a2.333 2.333 0 1 1-2.333 0v-3.23h-2.334v.584c0 .864-.469 1.618-1.166 2.021v8.48a2.333 2.333 0 0 1-2.334 2.333H5.833A2.333 2.333 0 0 1 3.5 23.333v-8.479a2.332 2.332 0 0 1-1.167-2.02v-3.5c0-.864.47-1.618 1.167-2.022Zm2.333-2.645h12.833V7H5.833V4.667ZM4.666 9.333v3.5h15.167v-3.5H4.666Zm1.167 14v-8.166h12.833v8.166H5.833Z"/></symbol><symbol xmlns="http://www.w3.org/2000/svg" id="bonus" viewBox="0 0 24 24"><path d="M14.5 2a3.5 3.5 0 0 1 3.163 5H21a1 1 0 0 1 1 1v4a1 1 0 0 1-1 1h-1v8a1 1 0 0 1-1 1H5a1 1 0 0 1-1-1v-8H3a1 1 0 0 1-1-1V8a1 1 0 0 1 1-1h3.337a3.5 3.5 0 0 1 5.664-3.95A3.48 3.48 0 0 1 14.5 2ZM18 13H6v7h12v-7Zm2-4H4v2h16V9ZM9.5 4a1.5 1.5 0 0 0-.144 2.993L9.5 7H11V5.5a1.5 1.5 0 0 0-1.356-1.493L9.5 4Zm5 0-.144.007a1.5 1.5 0 0 0-1.35 1.349L13 5.5V7h1.5l.144-.007a1.5 1.5 0 0 0 0-2.986L14.5 4Z"/></symbol><symbol xmlns="http://www.w3.org/2000/svg" id="challenges" viewBox="0 0 24 24"><path d="M17 15.244v6.872a.5.5 0 0 1-.757.429L12 19.999l-4.243 2.546a.5.5 0 0 1-.757-.43v-6.87a8 8 0 1 1 10 0v-.001Zm-8 1.173v3.05l3-1.8 3 1.8v-3.05a7.978 7.978 0 0 1-3 .582 7.978 7.978 0 0 1-3-.582Zm3-1.418a6 6 0 1 0 0-12 6 6 0 0 0 0 12Z"/></symbol></svg>